HIERARCHY
ROOT Hips
{
	OFFSET 0.000000 0.000000 0.000000
	CHANNELS 6 Xposition Yposition Zposition Zrotation Yrotation Xrotation 
	JOINT LHipJoint
	{
		OFFSET 0.000000 0.000000 0.000000
		CHANNELS 3 Zrotation Yrotation Xrotation
		JOINT LeftUpLeg
		{
			OFFSET 1.363060 -1.794630 0.839290
			CHANNELS 3 Zrotation Yrotation Xrotation
			JOINT LeftLeg
			{
				OFFSET 2.448110 -6.726130 0.000000
				CHANNELS 3 Zrotation Yrotation Xrotation
				JOINT LeftFoot
				{
					OFFSET 2.562200 -7.039590 0.000000
					CHANNELS 3 Zrotation Yrotation Xrotation
					JOINT LeftToeBase
					{
						OFFSET 0.157640 -0.433110 2.322550
						CHANNELS 3 Zrotation Yrotation Xrotation
						End Site
						{
							OFFSET 0.000000 0.000000 0.000000
						}
					}
				}
			}
		}
	}
	JOINT RHipJoint
	{
		OFFSET 0.000000 0.000000 0.000000
		CHANNELS 3 Zrotation Yrotation Xrotation
		JOINT RightUpLeg
		{
			OFFSET -1.305520 -1.794630 0.839290
			CHANNELS 3 Zrotation Yrotation Xrotation
			JOINT RightLeg
			{
				OFFSET -2.542530 -6.985550 0.000000
				CHANNELS 3 Zrotation Yrotation Xrotation
				JOINT RightFoot
				{
					OFFSET -2.568260 -7.056230 0.000000
					CHANNELS 3 Zrotation Yrotation Xrotation
					JOINT RightToeBase
					{
						OFFSET -0.164730 -0.452590 2.363150
						CHANNELS 3 Zrotation Yrotation Xrotation
						End Site
						{
							OFFSET 0.000000 0.000000 0.000000
						}
					}
				}
			}
		}
	}
	JOINT LowerBack
	{
		OFFSET 0.000000 0.000000 0.000000
		CHANNELS 3 Zrotation Yrotation Xrotation
		JOINT Spine
		{
			OFFSET 0.028270 2.035590 -0.193380
			CHANNELS 3 Zrotation Yrotation Xrotation
			JOINT Spine1
			{
				OFFSET 0.056720 2.048850 -0.042750
				CHANNELS 3 Zrotation Yrotation Xrotation
				JOINT Neck
				{
					OFFSET 0.000000 0.000000 0.000000
					CHANNELS 3 Zrotation Yrotation Xrotation
					JOINT Neck1
					{
						OFFSET -0.054170 1.746240 0.172020
						CHANNELS 3 Zrotation Yrotation Xrotation
						JOINT Head
						{
							OFFSET 0.104070 1.761360 -0.123970
							CHANNELS 3 Zrotation Yrotation Xrotation
							End Site
							{
								OFFSET 0.000000 0.000000 0.000000
							}
						}
					}
				}
				JOINT LeftShoulder
				{
					OFFSET 0.000000 0.000000 0.000000
					CHANNELS 3 Zrotation Yrotation Xrotation
					JOINT LeftArm
					{
						OFFSET 3.362410 1.200890 -0.311210
						CHANNELS 3 Zrotation Yrotation Xrotation
						JOINT LeftForeArm
						{
							OFFSET 4.983000 -0.000000 -0.000000
							CHANNELS 3 Zrotation Yrotation Xrotation
							JOINT LeftHand
							{
								OFFSET 3.483560 -0.000000 -0.000000
								CHANNELS 3 Zrotation Yrotation Xrotation
								JOINT LeftFingerBase
								{
									OFFSET 0.000000 0.000000 0.000000
									CHANNELS 3 Zrotation Yrotation Xrotation
									JOINT LeftHandIndex1
									{
										OFFSET 0.715260 -0.000000 -0.000000
										CHANNELS 3 Zrotation Yrotation Xrotation
										End Site
										{
											OFFSET 0.000000 0.000000 0.000000
										}
									}
								}
								JOINT LThumb
								{
									OFFSET 0.000000 0.000000 0.000000
									CHANNELS 3 Zrotation Yrotation Xrotation
									End Site
									{
										OFFSET 0.000000 0.000000 0.000000
									}
								}
							}
						}
					}
				}
				JOINT RightShoulder
				{
					OFFSET 0.000000 0.000000 0.000000
					CHANNELS 3 Zrotation Yrotation Xrotation
					JOINT RightArm
					{
						OFFSET -3.136600 1.374050 -0.404650
						CHANNELS 3 Zrotation Yrotation Xrotation
						JOINT RightForeArm
						{
							OFFSET -5.241900 -0.000000 -0.000000
							CHANNELS 3 Zrotation Yrotation Xrotation
							JOINT RightHand
							{
								OFFSET -3.444170 -0.000000 -0.000000
								CHANNELS 3 Zrotation Yrotation Xrotation
								JOINT RightFingerBase
								{
									OFFSET 0.000000 0.000000 0.000000
									CHANNELS 3 Zrotation Yrotation Xrotation
									JOINT RightHandIndex1
									{
										OFFSET -0.622530 -0.000000 -0.000000
										CHANNELS 3 Zrotation Yrotation Xrotation
										End Site
										{
											OFFSET 0.000000 0.000000 0.000000
										}
									}
								}
								JOINT RThumb
								{
									OFFSET 0.000000 0.000000 0.000000
									CHANNELS 3 Zrotation Yrotation Xrotation
									End Site
									{
										OFFSET 0.000000 0.000000 0.000000
									}
								}
							}
						}
					}
				}
			}
		}
	}
}
MOTION
Frames: 7
Frame Time: 0.008333
37.579189 17.235952 5.000988 -136.734199 -79.820406 141.163028 16.802494 2.024872 -3.556226 -22.994789 -0.470815 -26.978903 0.262226 20.169407 49.514792 3.516512 -14.157603 -8.920531 2.467200 -9.778000 -28.260800 -20.658662 -3.341012 -4.615841 48.366458 9.050772 8.580965 13.808569 -3.223553 8.950442 -1.910579 -1.556108 -24.693773 -0.068000 1.681900 -4.627400 3.787625 0.395862 13.729226 1.728969 0.824066 -4.068597 2.325629 0.346278 -11.858308 0.277563 0.846681 -18.765070 2.701556 -0.747234 20.673542 -1.263300 -0.614700 18.450000 9.217017 -7.195330 0.285590 -89.983720 17.109959 9.774800 18.861665 -32.842361 -7.367706 -0.772144 1.892320 6.133955 28.641457 33.994840 16.614200 -7.125000 0.000000 0.000000 -2.652000 65.246000 -1.298300 -9.379709 7.282841 1.230466 72.355080 -10.186531 44.475073 -21.642499 35.298336 -5.884978 1.041930 -1.767457 -10.235494 -15.717254 -17.275544 4.431700 7.125000 0.000000 0.000000 10.433600 -45.547100 -0.142400 
37.293529 17.216523 4.987555 -134.325540 -79.592040 138.562240 16.816135 1.739511 -3.686614 -21.887034 -1.943149 -27.955070 -1.455222 19.450338 44.662284 3.812323 -13.635020 -9.011060 2.786700 -10.341500 -30.090000 -20.746106 -3.348250 -4.658590 49.219236 8.910505 10.489232 14.060419 -2.601808 7.987024 -2.080747 -2.525288 -26.086930 -0.282200 3.416800 -9.441300 4.280022 0.426350 14.135545 1.750519 0.939528 -4.062296 2.362821 0.388021 -11.991930 0.013333 0.755497 -18.669927 2.693461 -0.793191 20.667027 -1.205100 -0.680600 18.420200 9.213212 -7.201416 0.293608 -90.188552 17.232793 9.345300 18.683937 -32.668248 -7.305873 -0.762669 1.898935 6.811373 28.368944 34.457639 16.654200 -7.125000 0.000000 0.000000 -3.266100 65.659100 -1.630400 -9.320374 7.269076 1.222144 71.777703 -9.810594 45.437315 -22.336047 35.931472 -6.236191 1.129655 -1.761785 -10.703297 -16.297554 -19.523384 5.264700 7.125000 0.000000 0.000000 10.450400 -47.873500 -0.748600 
37.003428 17.188101 4.975675 -131.707159 -79.190073 135.746086 16.758178 1.460469 -3.789779 -20.404762 -3.477306 -28.457525 -3.278322 18.335610 39.288799 4.019571 -12.316182 -9.206002 3.016600 -10.721900 -31.347700 -20.876463 -3.341915 -4.716129 50.286713 8.791386 12.280305 14.278173 -2.152433 7.354750 -2.252159 -2.985268 -27.154041 -0.324500 3.661300 -10.125600 4.946794 0.451615 14.591691 1.782048 1.080809 -4.064341 2.346918 0.424889 -12.180338 -0.167961 0.750282 -18.593239 2.695072 -0.752581 20.734108 -1.146200 -0.703900 18.472400 9.216440 -7.216587 0.296290 -90.368140 17.335669 8.763272 18.398793 -32.357128 -7.174929 -0.743973 1.914377 7.573034 27.952067 34.293883 16.324900 -7.125000 0.000000 0.000000 -3.706800 65.380000 -1.826700 -9.261530 7.252277 1.206576 71.230057 -9.343640 46.437321 -22.953378 36.407091 -6.444662 1.128536 -1.745365 -11.315863 -16.554480 -18.916671 5.165100 7.125000 0.000000 0.000000 10.052300 -47.298500 -0.575700 
36.707222 17.152463 4.968792 -129.714823 -78.521909 133.655776 16.616648 1.184521 -3.863192 -18.479680 -5.012260 -28.634241 -5.134751 16.761210 33.412855 3.921032 -10.305343 -8.360826 3.317700 -11.192400 -32.931700 -21.037082 -3.303228 -4.802442 51.446342 8.630312 13.851278 14.466321 -1.837888 6.947545 -2.427794 -3.109187 -28.055627 -0.401100 4.066300 -11.263200 5.787695 0.533717 14.916069 1.808771 1.311906 -4.061333 2.216445 0.487133 -12.290018 -0.275170 0.774195 -18.546372 2.655253 -0.691373 20.787145 -1.128000 -0.711500 18.516500 9.232947 -7.231374 0.297006 -90.538579 17.413675 7.996954 18.050905 -31.927987 -6.963347 -0.725988 1.940285 8.536473 26.848475 33.187867 15.186200 -7.125000 0.000000 0.000000 -4.458400 63.957300 -2.050300 -9.210573 7.224813 1.187233 70.753723 -8.808681 47.394968 -23.539904 36.857166 -6.626805 1.124742 -1.724600 -12.291803 -16.640373 -17.984517 4.907800 7.125000 0.000000 0.000000 9.748900 -46.369500 -0.332600 
36.406796 17.115049 4.967349 -128.499814 -77.896167 132.432215 16.433454 0.889918 -3.887404 -16.330886 -6.970515 -28.451522 -6.916733 14.797799 27.152732 3.453710 -7.495987 -7.156775 3.513500 -11.483300 -33.927600 -21.161448 -3.246979 -4.903094 52.377805 8.419130 15.373269 14.647645 -1.452886 6.399741 -2.574343 -3.336847 -28.837674 -0.549400 4.748300 -13.192000 6.459731 0.670802 15.077575 1.837238 1.571998 -4.057416 2.191413 0.581967 -12.336735 -0.476429 0.735619 -18.431473 2.643953 -0.689961 20.814689 -1.078200 -0.752700 18.507500 9.255365 -7.236777 0.299643 -90.847895 17.591321 7.641122 17.874598 -31.665445 -6.764240 -0.699281 1.973110 8.473503 25.979581 30.811762 13.661600 -7.125000 0.000000 0.000000 -4.307800 61.259600 -1.707500 -9.166284 7.202148 1.170642 70.268638 -8.283227 48.081979 -24.107257 37.330178 -6.873603 1.154734 -1.709859 -12.945756 -16.957273 -18.380289 5.124000 7.125000 0.000000 0.000000 9.549500 -46.808500 -0.430000 
36.096711 17.079633 4.970901 -127.322789 -77.311917 131.203786 16.242554 0.583281 -3.820852 -13.788983 -9.944965 -27.642740 -8.430103 12.495528 20.590312 2.631707 -4.010953 -6.627017 3.571000 -11.566500 -34.215300 -21.296175 -3.193246 -5.044026 53.236554 8.114357 16.994604 14.864146 -1.010759 5.772863 -2.478989 -4.428074 -28.461164 -0.741500 5.500900 -15.342800 7.085971 0.783029 15.292428 1.870613 1.802113 -4.055175 2.201016 0.666809 -12.405574 -0.660671 0.723389 -18.417038 2.642625 -0.649647 20.863699 -1.022100 -0.775800 18.551000 9.267156 -7.246878 0.310264 -91.184593 17.949081 7.872355 17.970971 -31.715223 -6.680134 -0.731835 1.983453 7.059422 24.949992 29.239343 12.435500 -7.125000 0.000000 0.000000 -4.802800 59.370400 -1.688200 -9.118604 7.183027 1.152235 69.778419 -7.712965 48.526906 -24.585102 37.715550 -7.098528 1.168130 -1.705160 -12.712676 -17.288487 -18.774452 5.353700 7.125000 0.000000 0.000000 9.326100 -47.255400 -0.523400 
35.772305 17.042218 4.978340 -126.201411 -76.649433 130.058357 16.089654 0.253468 -3.690689 -10.795520 -13.889108 -26.473211 -9.417923 10.148600 14.305154 1.294844 0.296319 -7.163104 3.280200 -11.135400 -32.738000 -21.416171 -3.142949 -5.196501 54.098604 7.818916 18.636359 15.091705 -0.564466 5.129024 -2.666586 -5.562145 -29.739307 -0.803000 5.719300 -15.972000 7.757183 0.911767 15.433982 1.915930 2.055405 -4.043893 2.210193 0.757130 -12.395888 -0.812425 0.688416 -18.620335 2.621058 -0.648069 20.976290 -0.993600 -0.809800 18.723100 9.263102 -7.245920 0.327321 -91.487135 18.236529 7.393577 17.949553 -31.866312 -6.902874 -0.650638 1.978278 7.116126 28.397612 31.862689 15.439400 -7.125000 0.000000 0.000000 -1.941900 62.872900 -0.843000 -9.070766 7.147181 1.126924 69.319445 -7.048286 48.787518 -24.995886 38.043661 -7.302094 1.190618 -1.694849 -11.992811 -17.279971 -19.485356 5.589300 7.125000 0.000000 0.000000 9.491200 -47.996800 -0.707700 
